<svg width="35" height="35" viewBox="0 0 35 35" fill="none" xmlns="http://www.w3.org/2000/svg">
  <g clip-path="url(#clip0_21_89039)">
    <g clip-path="url(#clip1_21_89039)">
      <path fill-rule="evenodd" clip-rule="evenodd"
        d="M28.227 17.055C27.8 17.055 27.454 16.703 27.454 16.269V13.731C27.454 13.297 27.8 12.945 28.227 12.945C28.654 12.945 29 13.297 29 13.731V16.269C29 16.703 28.654 17.055 28.227 17.055ZM24.536 19.57C24.109 19.57 23.763 19.218 23.763 18.784V11.215C23.763 10.781 24.109 10.429 24.536 10.429C24.963 10.429 25.309 10.781 25.309 11.215V18.784C25.309 19.218 24.963 19.57 24.536 19.57ZM20.845 20.42C20.418 20.42 20.073 20.069 20.073 19.635V10.365C20.073 9.931 20.418 9.58 20.845 9.58C21.272 9.58 21.618 9.931 21.618 10.365V19.635C21.618 20.069 21.272 20.42 20.845 20.42ZM17.155 25C16.728 25 16.382 24.648 16.382 24.214V5.785C16.382 5.351 16.728 5 17.155 5C17.581 5 17.927 5.351 17.927 5.785V24.214C17.927 24.648 17.581 25 17.155 25ZM13.464 21.84C13.037 21.84 12.691 21.489 12.691 21.055V8.945C12.691 8.511 13.037 8.159 13.464 8.159C13.891 8.159 14.236 8.511 14.236 8.945V21.055C14.236 21.489 13.891 21.84 13.464 21.84ZM9.77301 19.57C9.34601 19.57 9 19.218 9 18.784V11.215C9 10.781 9.34601 10.429 9.77301 10.429C10.2 10.429 10.546 10.781 10.546 11.215V18.784C10.546 19.218 10.2 19.57 9.77301 19.57Z"
        fill="#3BC8E7" />
    </g>
  </g>
  <defs>
    <clipPath id="clip0_21_89039">
      <rect width="35" height="35" fill="white" />
    </clipPath>
    <clipPath id="clip1_21_89039">
      <rect width="1093" height="65" fill="white" transform="translate(-708)" />
    </clipPath>
  </defs>
</svg>